<?xml version="1.0" standalone="no"?>
<!DOCTYPE svg PUBLIC "-//W3C//DTD SVG 20010904//EN"
 "http://www.w3.org/TR/2001/REC-SVG-20010904/DTD/svg10.dtd">
<svg version="1.0" xmlns="http://www.w3.org/2000/svg"
 width="1620.000000pt" height="1080.000000pt" viewBox="0 0 1620.000000 1080.000000"
 preserveAspectRatio="xMidYMid meet">
<metadata>
Created by potrace 1.16, written by Peter Selinger 2001-2019
</metadata>
<g transform="translate(0.000000,1080.000000) scale(0.100000,-0.100000)"
fill="#000000" stroke="none">
<path d="M0 9921 l0 -880 33 -3 c42 -4 42 -29 0 -40 -19 -5 -33 -15 -33 -23 0
-12 14 -15 65 -15 51 0 65 3 65 15 0 17 11 19 25 6 6 -5 39 -4 78 2 48 7 74 7
90 -1 12 -6 38 -13 57 -16 19 -3 55 -10 80 -15 25 -6 62 -7 83 -4 26 4 43 1
55 -10 25 -22 407 -18 469 6 58 22 247 34 278 17 30 -16 95 -5 95 16 0 8 10
19 23 23 17 7 28 4 47 -13 29 -26 88 -52 110 -48 25 5 64 25 87 45 19 17 31
19 77 13 51 -6 57 -4 80 21 30 32 19 44 -31 36 -28 -5 -33 -3 -33 15 0 23 52
70 58 52 3 -7 17 -8 39 -4 l36 7 -7 -38 c-6 -29 -3 -42 11 -57 10 -11 18 -27
18 -36 0 -26 53 -26 114 -2 30 11 61 18 71 15 10 -3 45 1 77 9 78 19 238 29
262 17 10 -6 52 -15 92 -21 41 -7 96 -18 123 -26 27 -8 72 -14 100 -14 29 0
59 -7 70 -15 11 -8 33 -15 48 -15 16 0 40 -8 54 -17 18 -11 60 -19 137 -24 62
-3 128 -12 147 -18 57 -19 467 -13 554 8 22 5 61 6 90 1 28 -4 67 -6 86 -3 19
2 70 5 113 6 62 2 82 6 92 20 15 20 76 41 84 28 10 -14 71 -11 71 4 0 18 50
26 80 11 32 -15 85 -21 185 -20 66 1 91 6 140 29 45 21 74 28 115 27 30 -1
103 6 161 15 104 16 108 16 180 -5 41 -12 108 -23 149 -25 60 -3 88 -10 140
-35 l65 -32 115 11 c100 10 120 10 153 -4 46 -20 47 -37 5 -60 -31 -16 -37
-16 -85 -2 -49 14 -54 14 -83 -4 -22 -13 -43 -17 -73 -14 -27 3 -49 -1 -61
-10 -19 -14 -19 -15 2 -42 12 -15 22 -34 22 -41 0 -19 -47 -17 -90 4 -31 15
-36 23 -40 62 -3 25 -9 51 -13 58 -13 20 -107 14 -180 -11 -80 -28 -88 -35
-64 -52 17 -12 17 -15 1 -49 -15 -30 -20 -34 -33 -23 -12 10 -14 9 -9 -3 9
-25 -10 -60 -32 -60 -21 0 -27 19 -10 36 14 14 -7 32 -41 37 -17 3 -25 12 -29
33 -7 39 -39 43 -71 10 -13 -14 -32 -26 -42 -26 -30 0 -40 -45 -18 -81 25 -41
18 -59 -17 -50 -20 5 -28 15 -30 34 -3 24 -7 27 -43 25 -46 -2 -48 0 -55 38
-7 37 -17 48 -62 70 -45 21 -170 21 -283 -2 -55 -11 -82 -12 -103 -5 -44 17
-88 13 -113 -11 -16 -15 -43 -24 -86 -29 -34 -5 -89 -13 -122 -20 -33 -6 -81
-12 -107 -14 -54 -3 -81 -23 -161 -117 l-47 -56 -53 25 c-28 14 -72 37 -97 53
-34 21 -62 29 -112 33 l-68 5 -27 -52 c-16 -29 -40 -56 -55 -64 -34 -16 -35
-24 -3 -58 29 -31 33 -72 8 -81 -10 -4 -22 -12 -28 -18 -17 -20 -44 -25 -58
-10 -20 20 -30 94 -16 112 10 11 9 17 -4 30 -13 14 -27 14 -99 6 -46 -6 -99
-9 -118 -6 -19 2 -41 -1 -49 -6 -12 -8 -10 -16 13 -45 18 -25 28 -50 29 -79 2
-42 2 -42 -43 -53 l-45 -11 -3 -64 c-2 -41 -9 -70 -19 -81 -36 -40 -113 -8
-113 46 0 17 -7 51 -16 76 -11 32 -14 61 -9 98 5 43 3 57 -10 72 -12 13 -16
29 -12 47 4 22 -3 38 -36 77 -80 95 -86 129 -29 176 29 24 34 33 23 39 -11 7
-10 13 8 32 27 30 15 41 -40 37 -42 -3 -44 -4 -50 -41 -10 -66 -25 -72 -149
-70 -80 1 -110 -1 -109 -10 0 -7 23 -31 50 -54 l49 -43 -27 -7 c-31 -8 -202
-6 -275 3 -44 6 -50 10 -93 69 -35 47 -54 64 -76 67 -15 3 -33 0 -38 -5 -12
-12 -70 30 -106 77 -53 70 -76 13 -45 -112 6 -28 9 -56 5 -61 -11 -19 -81 -32
-110 -21 -14 5 -37 10 -50 10 -33 0 -99 58 -85 75 12 15 9 48 -7 67 -7 7 -13
34 -15 58 -3 43 -4 45 -41 51 -21 3 -40 2 -43 -3 -3 -4 -18 -8 -33 -8 -80 0
-91 -8 -201 -151 -14 -18 -38 -40 -55 -51 -31 -19 -75 -24 -75 -9 0 4 -29 11
-65 13 -54 5 -70 11 -100 37 -33 29 -41 31 -110 31 -73 0 -75 1 -75 25 0 33
-20 41 -115 49 -60 4 -87 2 -107 -8 -15 -8 -30 -11 -33 -7 -7 13 -95 32 -115
26 -10 -3 -20 -15 -23 -27 -4 -14 -11 -19 -23 -14 -11 4 -27 -5 -51 -29 -18
-19 -46 -38 -61 -42 -15 -3 -46 -15 -69 -25 l-43 -19 0 -4359 0 -4360 8100 0
8100 0 0 4496 0 4497 -22 18 c-24 21 -53 25 -64 8 -3 -6 -19 -9 -34 -6 -52 11
-69 -2 -104 -77 -37 -78 -91 -141 -122 -141 -20 0 -20 -2 -9 -47 5 -19 1 -31
-13 -44 -11 -11 -23 -31 -27 -46 -4 -16 -12 -28 -17 -28 -5 0 -14 12 -20 28
-6 15 -30 41 -53 59 -41 31 -42 33 -35 70 5 21 13 53 19 72 6 19 9 37 6 39 -2
3 -38 -10 -79 -28 -63 -28 -78 -31 -91 -20 -38 31 -7 72 70 91 28 7 64 23 80
36 48 38 195 132 218 139 12 4 31 13 42 20 11 8 27 14 37 14 10 0 35 16 56 35
48 43 85 57 128 49 l34 -6 0 786 0 786 -2421 0 c-2147 0 -2420 -2 -2415 -15 3
-9 -4 -21 -20 -31 -22 -15 -28 -15 -51 -3 -14 8 -28 22 -31 32 -4 16 -50 17
-871 15 l-866 -3 -47 -23 c-56 -26 -103 -22 -95 9 5 18 -11 19 -488 19 l-493
0 -31 -42 c-36 -49 -35 -61 5 -68 23 -4 25 -7 12 -12 -10 -4 -18 -14 -18 -23
0 -8 -7 -15 -15 -15 -8 0 -15 5 -15 11 0 6 -11 20 -25 31 -14 11 -25 26 -25
33 0 8 -8 30 -17 49 -18 35 -19 36 -84 36 -57 0 -69 -3 -89 -25 -43 -46 -120
-42 -120 6 0 16 -7 19 -42 19 -39 -1 -45 -4 -68 -41 -26 -41 -52 -48 -58 -15
-3 12 5 27 19 38 23 18 13 18 -406 14 -236 -2 -434 -4 -440 -4 -5 1 -147 2
-314 5 -274 3 -306 2 -322 -13 -41 -37 -15 -58 50 -42 23 6 45 8 48 4 8 -7
-44 -56 -60 -56 -5 0 -6 -14 -3 -32 4 -18 9 -48 13 -66 5 -28 10 -33 44 -38
44 -7 68 -29 52 -45 -7 -7 -29 -8 -57 -4 -40 6 -46 10 -40 27 4 13 -1 28 -14
41 -11 12 -22 31 -24 42 -2 10 -16 26 -31 35 -25 13 -29 13 -37 0 -27 -47 -36
-53 -58 -41 -25 13 -29 46 -8 54 7 3 16 17 18 32 8 39 -21 49 -141 47 -77 -1
-109 3 -125 13 -27 19 -76 19 -104 -1 -34 -23 -66 -15 -70 19 l-3 27 -148 0
c-104 0 -151 -4 -160 -12 -11 -10 -14 -10 -18 0 -4 9 -92 12 -397 12 -300 0
-395 -3 -405 -12 -11 -10 -14 -10 -18 0 -3 8 -29 12 -79 12 -41 0 -84 -6 -95
-12 -17 -10 -23 -10 -26 0 -4 9 -459 12 -2229 12 l-2224 0 0 -879z m11550 849
c14 -11 31 -20 38 -20 8 0 27 -8 43 -17 l28 -17 -22 -38 c-20 -36 -108 -103
-120 -91 -3 2 -10 -4 -15 -14 -10 -19 -12 -25 -12 -45 0 -29 -18 11 -24 52 -9
68 -7 92 9 117 12 18 13 27 3 42 -9 15 -9 23 1 35 18 21 41 20 71 -4z m-4740
-47 c14 -6 39 -8 56 -6 54 8 103 -36 57 -51 -10 -3 -29 -22 -42 -41 -13 -19
-26 -35 -30 -35 -12 0 -28 15 -40 38 -6 12 -20 22 -31 22 -11 0 -28 10 -39 21
-16 17 -31 21 -71 20 -28 0 -59 3 -68 8 -9 5 -25 12 -35 15 -10 3 -16 9 -14
13 8 12 229 9 257 -4z m-1006 -38 c53 -40 68 -43 96 -15 24 24 80 27 80 5 0
-16 -43 -31 -60 -20 -5 3 -25 -9 -43 -27 -30 -31 -36 -33 -87 -31 -30 2 -88 4
-129 5 -45 2 -76 8 -78 14 -5 14 57 54 83 54 11 0 30 12 43 25 30 33 41 32 95
-10z m-519 7 c-7 -7 42 -42 59 -42 9 0 16 -6 16 -14 0 -8 5 -16 12 -18 20 -7
-2 -28 -30 -28 -48 0 -72 -12 -88 -41 -15 -29 -14 -29 13 -28 44 3 146 -28
164 -50 12 -14 15 -36 12 -87 -4 -84 -13 -95 -53 -66 l-29 22 -17 -24 c-9 -15
-13 -33 -9 -46 4 -12 2 -27 -5 -35 -17 -21 8 -55 41 -55 19 0 33 10 50 34 20
30 47 47 139 90 17 8 24 19 22 33 -4 27 24 43 61 36 32 -6 44 -20 28 -36 -13
-13 -15 -47 -2 -47 19 0 86 33 97 48 7 9 19 13 33 9 21 -5 29 7 11 18 -5 3 -7
12 -4 20 4 8 -10 33 -30 57 -27 31 -33 44 -24 51 9 5 6 6 -8 2 -23 -6 -50 17
-39 35 10 16 52 12 70 -7 10 -9 22 -29 27 -44 7 -21 19 -29 53 -38 24 -6 48
-19 54 -28 9 -17 12 -17 58 0 58 21 87 22 102 3 8 -9 22 -11 51 -6 53 10 52
-5 -4 -58 -31 -29 -49 -39 -64 -35 -15 3 -34 -9 -72 -47 -28 -28 -49 -54 -46
-57 9 -10 -22 -33 -54 -39 -17 -4 -33 -11 -36 -15 -3 -5 -11 -9 -19 -9 -9 0
-13 14 -13 46 0 42 2 47 29 57 32 12 37 25 15 33 -17 6 -94 -36 -121 -66 -19
-21 -95 -59 -157 -79 -25 -8 -50 -29 -75 -61 -47 -60 -81 -81 -135 -83 -34 -2
-43 2 -46 16 -2 11 6 29 17 41 31 33 15 39 -28 11 -56 -38 -143 -64 -182 -56
-31 6 -35 12 -48 60 -14 50 -13 54 5 68 32 24 68 13 79 -24 5 -18 15 -33 23
-33 7 0 34 17 59 37 45 37 45 37 24 54 -15 13 -21 29 -21 59 0 34 -6 47 -35
74 -30 28 -35 40 -35 77 0 33 5 47 20 56 27 18 65 1 84 -36 12 -23 22 -29 45
-29 32 1 39 14 33 60 -3 22 -9 26 -37 26 -40 0 -75 18 -75 37 0 27 -49 10 -83
-29 -18 -20 -23 -22 -58 -25 -9 0 -21 -12 -27 -26 -7 -14 -20 -28 -29 -32 -10
-3 -44 -24 -75 -46 -31 -21 -61 -36 -67 -32 -26 16 10 170 50 215 12 14 31 35
42 47 l20 23 -31 11 c-32 11 -50 37 -29 44 6 2 38 6 71 9 50 4 59 2 63 -13 2
-10 25 -28 49 -40 24 -13 42 -26 39 -31 -3 -5 -12 -7 -21 -3 -9 3 -14 0 -12
-8 2 -9 -5 -13 -20 -11 -22 3 -102 -35 -102 -49 0 -18 25 -21 62 -8 55 18 146
109 109 109 -8 0 -17 20 -26 57 -2 7 2 16 8 20 20 12 113 26 102 15z m2093
-29 c13 -13 30 -14 92 -10 51 4 88 2 115 -7 102 -34 111 -36 179 -27 76 9 142
0 190 -25 17 -9 56 -19 86 -23 39 -4 55 -10 55 -21 1 -30 28 -79 47 -86 11 -3
27 1 37 10 19 18 46 22 36 6 -3 -5 3 -10 14 -10 27 0 41 -29 41 -83 0 -63 -18
-75 -102 -69 l-68 4 0 34 c0 46 -23 53 -54 17 -18 -19 -26 -23 -27 -13 -1 8
-2 24 -3 35 -1 17 -7 20 -40 18 -21 -2 -47 4 -59 12 -26 18 -54 19 -59 3 -8
-23 -56 -16 -69 9 -16 31 -53 39 -82 20 -22 -14 -26 -13 -53 7 -16 12 -48 29
-71 38 l-43 16 -27 -39 c-18 -24 -36 -39 -50 -39 -12 0 -28 -9 -36 -20 -8 -11
-17 -17 -20 -14 -9 9 -73 -41 -94 -72 -18 -28 -17 -30 19 -39 24 -6 29 -2 53
44 l25 51 73 0 c49 0 80 5 93 15 10 8 36 15 56 15 34 0 39 -4 56 -38 16 -33
16 -41 5 -58 -10 -16 -10 -27 -1 -51 11 -28 9 -34 -20 -71 -33 -41 -39 -70
-22 -102 8 -15 3 -28 -23 -62 -18 -23 -48 -53 -67 -66 -35 -23 -35 -23 -38 -3
-2 12 -8 21 -14 21 -7 0 -9 15 -6 38 5 31 1 44 -22 72 -26 31 -27 35 -11 48
14 12 13 12 -8 6 -15 -4 -21 -2 -17 4 4 6 -10 18 -30 28 -30 15 -37 15 -45 3
-6 -10 -9 -10 -9 -1 0 19 -40 15 -41 -5 0 -10 -17 -31 -36 -48 -31 -25 -44
-30 -84 -28 -30 1 -51 -3 -56 -10 -7 -11 -115 -77 -126 -77 -2 0 -3 19 -2 42
1 41 2 43 41 51 43 8 88 41 81 60 -6 19 -53 25 -93 11 -21 -7 -47 -11 -56 -8
-12 4 -18 0 -18 -11 0 -10 -5 -13 -12 -9 -6 4 -8 3 -5 -4 14 -21 -5 -42 -38
-42 -51 0 -52 25 -2 49 23 11 51 34 62 51 11 16 29 30 40 30 42 0 65 12 65 34
0 32 -14 48 -35 40 -17 -7 -17 -4 4 29 13 21 21 48 19 64 -3 24 -7 28 -30 25
-39 -4 -36 22 5 50 18 12 43 35 56 52 l22 31 -36 9 c-41 11 -48 42 -12 55 31
12 38 7 76 -49 35 -51 35 -52 15 -147 l-6 -32 58 29 c33 16 67 30 77 30 10 0
26 4 35 9 9 5 35 11 57 12 23 3 43 10 47 19 11 24 9 72 -2 65 -6 -4 -33 -4
-60 0 -46 6 -50 9 -50 34 0 32 -17 52 -36 44 -15 -5 -44 13 -44 28 0 23 113
18 138 -8z m1578 -48 c-15 -23 -15 -25 4 -35 11 -6 25 -8 31 -5 5 4 16 1 24
-5 11 -9 27 -9 62 -1 45 10 49 9 67 -15 16 -22 23 -24 59 -19 31 6 38 4 35 -6
-3 -8 -23 -17 -45 -20 -23 -3 -48 -11 -56 -18 -9 -7 -35 -14 -59 -16 -33 -3
-48 -11 -68 -35 -19 -23 -37 -33 -80 -40 -101 -18 -165 -40 -185 -63 l-20 -22
-45 43 c-38 37 -49 43 -74 38 -17 -4 -34 -12 -38 -19 -5 -7 -8 0 -8 19 l0 30
-82 0 c-46 0 -100 6 -120 13 -37 12 -49 33 -27 47 16 10 -10 24 -44 24 -34 0
-97 25 -97 39 0 25 118 41 142 19 7 -7 34 -13 60 -13 46 -1 47 0 23 13 -27 14
-29 20 -16 40 5 8 22 12 42 10 26 -2 35 -8 37 -24 2 -16 8 -20 28 -16 19 3 24
0 24 -16 0 -12 -4 -24 -10 -27 -18 -11 -10 -23 20 -30 17 -4 30 -11 30 -15 0
-5 10 -18 22 -30 16 -15 30 -19 53 -14 22 4 37 1 48 -10 19 -20 35 -20 80 -1
45 19 50 27 35 59 -9 21 -8 32 3 52 12 23 18 25 50 20 45 -7 63 10 53 49 -8
32 11 49 39 34 17 -10 17 -12 3 -34z m-3338 -103 c2 -17 9 -32 15 -32 7 0 19
-6 28 -13 15 -11 15 -15 3 -31 -10 -15 -16 -16 -27 -7 -11 9 -17 8 -28 -5 -8
-10 -13 -19 -11 -21 11 -15 -2 -20 -28 -12 -18 7 -30 18 -30 29 0 10 -7 23
-15 30 -23 19 -18 35 21 70 44 39 68 36 72 -8z m3762 30 c0 -4 -5 -13 -11 -19
-21 -21 1 -31 81 -38 60 -5 84 -4 96 6 13 10 17 10 25 -2 12 -20 11 -35 -5
-48 -14 -12 -50 -10 -62 2 -4 4 -17 1 -28 -6 -12 -8 -48 -24 -81 -36 -33 -12
-64 -26 -70 -31 -8 -7 -153 -30 -187 -30 -5 0 -8 14 -8 30 0 28 8 34 37 31 6
-1 22 12 35 27 12 16 49 41 81 55 42 19 57 31 57 46 0 14 6 21 20 21 11 0 20
-4 20 -8z m460 -17 c16 -20 39 -19 62 2 17 15 21 15 60 -2 76 -31 88 -38 88
-51 0 -16 -67 -74 -85 -74 -7 0 -24 -18 -36 -40 -13 -22 -25 -40 -28 -40 -3 0
-12 -4 -20 -9 -12 -8 -10 -15 12 -44 l26 -35 -23 -6 c-14 -3 -32 -3 -40 0 -9
3 -16 1 -16 -6 0 -7 -8 -9 -20 -5 -13 4 -22 1 -26 -10 -4 -9 -13 -13 -24 -10
-13 4 -24 -4 -40 -30 -15 -24 -29 -35 -46 -35 -13 0 -24 6 -24 14 0 22 21 76
30 76 5 0 22 11 38 25 32 27 41 75 16 96 -22 18 -17 57 9 70 32 17 47 40 45
69 -3 61 14 79 42 45z m-5005 -82 c-3 -16 -15 -37 -25 -48 -19 -20 -20 -48 -6
-92 6 -18 -1 -33 -27 -65 -20 -24 -35 -47 -35 -53 0 -5 -5 -11 -11 -13 -6 -2
-11 1 -11 8 0 8 -6 8 -20 0 -11 -6 -20 -16 -20 -24 0 -9 -18 -12 -64 -12 -59
1 -65 -1 -90 -31 -15 -17 -40 -35 -57 -38 -27 -6 -35 -2 -60 25 -16 17 -29 41
-29 54 0 40 77 99 150 115 38 9 50 7 78 -9 30 -18 36 -19 61 -5 30 15 41 33
41 65 0 18 36 47 53 42 4 -1 7 5 7 13 0 27 5 36 44 75 26 26 29 25 21 -7z
m6370 -49 c9 -13 20 -15 48 -10 21 4 37 11 37 16 0 6 11 10 25 10 39 0 31 -29
-24 -82 -42 -41 -55 -48 -89 -48 -30 0 -42 5 -45 18 -12 40 -18 93 -12 102 10
16 47 12 60 -6z m-6115 -64 c0 -5 4 -10 10 -10 12 0 56 -44 70 -70 23 -43 15
-50 -64 -50 -113 0 -147 20 -126 75 15 38 47 65 80 65 17 0 30 -4 30 -10z
m8169 -66 c9 -9 -14 -38 -45 -54 -18 -10 -42 -41 -64 -82 -51 -96 -54 -100
-73 -92 -22 8 -14 43 24 107 16 26 29 58 29 71 0 33 55 68 94 61 16 -3 32 -8
35 -11z m-9164 -74 c7 -12 -17 -71 -39 -93 -10 -9 -29 -17 -42 -17 -14 0 -42
-9 -64 -20 l-39 -20 -28 24 c-25 22 -26 27 -15 45 6 12 12 29 12 40 0 30 25
44 67 36 21 -3 50 -2 63 4 32 13 77 14 85 1z m9302 -59 c43 -31 57 -68 46
-121 -8 -44 -23 -47 -53 -10 -27 34 -34 35 -96 15 -17 -5 -23 -2 -27 17 -20
71 8 128 62 128 15 0 46 -13 68 -29z m420 3 c3 -8 0 -21 -7 -30 -16 -18 -8
-26 51 -48 35 -13 62 -15 118 -10 68 7 73 6 99 -20 15 -14 36 -33 47 -40 11
-8 17 -18 13 -22 -4 -4 -69 -8 -145 -10 -89 -1 -155 -8 -185 -18 -45 -14 -48
-14 -58 4 -5 10 -7 26 -4 34 5 14 -5 16 -70 16 -65 0 -77 3 -86 20 -9 16 -7
27 11 53 29 42 64 76 88 85 32 12 122 2 128 -14z m-8894 -16 c8 -13 5 -22 -14
-42 -13 -14 -29 -26 -36 -26 -6 0 -13 -3 -15 -7 -6 -14 -64 -51 -84 -54 -10
-1 -26 0 -34 3 -8 3 -33 10 -55 14 -29 7 -41 15 -43 30 -4 29 16 42 73 47 32
2 65 13 90 30 45 30 101 32 118 5z m1510 -25 c30 -5 44 -14 60 -39 12 -19 25
-34 29 -34 4 0 28 21 54 46 34 33 53 44 68 40 12 -2 37 -8 58 -11 35 -7 36 -8
27 -35 -7 -20 -24 -33 -66 -51 -79 -33 -146 -82 -132 -96 8 -8 6 -17 -8 -32
-34 -37 -123 -26 -123 14 0 8 11 26 23 42 13 15 27 40 31 55 6 25 4 27 -40 34
-39 5 -49 3 -70 -17 -13 -12 -24 -18 -24 -13 -1 5 -8 -3 -16 -19 -17 -32 -8
-55 31 -81 31 -21 32 -36 0 -70 -30 -33 -31 -42 -5 -49 24 -6 27 -35 5 -44 -9
-3 -40 2 -70 12 -30 9 -59 14 -64 10 -7 -3 -6 5 0 24 6 17 26 40 45 52 41 25
42 32 9 64 -22 23 -65 34 -65 17 0 -4 -11 -20 -25 -35 -20 -21 -35 -27 -65
-27 -37 0 -52 12 -31 24 5 3 7 15 4 26 -7 27 23 70 48 70 11 0 36 12 55 27 26
20 38 23 46 15 17 -17 38 -15 38 4 0 8 3 13 8 11 4 -3 18 10 32 28 28 38 58
56 80 48 8 -3 32 -7 53 -10z m-438 -87 c19 -8 35 -21 35 -29 0 -8 -20 -36 -45
-62 -39 -41 -49 -46 -74 -40 -30 6 -71 -11 -71 -30 0 -13 -53 -45 -75 -45 -9
0 -23 -7 -32 -15 -12 -12 -13 -19 -3 -30 16 -19 34 -19 50 0 11 14 16 11 34
-20 22 -36 22 -36 41 -15 10 11 26 20 37 20 10 0 18 5 18 11 0 5 5 7 10 4 6
-3 10 4 10 18 0 27 23 52 40 42 20 -12 10 -50 -21 -76 -27 -22 -30 -28 -20
-47 6 -11 11 -30 11 -41 0 -11 9 -22 19 -26 11 -3 22 -13 26 -23 9 -24 -41
-62 -81 -62 -17 0 -37 -7 -44 -15 -7 -8 -20 -15 -29 -15 -9 0 -21 -4 -26 -9
-14 -13 -75 -24 -75 -14 0 5 5 14 11 20 9 9 5 13 -17 18 -16 4 -53 18 -82 32
-34 17 -56 23 -60 16 -4 -6 -32 -23 -62 -38 -64 -32 -69 -38 -62 -71 5 -25 -1
-28 -48 -24 -28 2 -62 18 -71 33 -9 13 10 78 29 100 8 9 27 17 41 17 14 0 49
8 76 18 36 13 49 23 47 35 -2 13 5 17 31 17 41 0 64 16 73 52 6 28 6 28 -22
13 -16 -8 -37 -15 -46 -15 -9 0 -23 -9 -31 -20 -8 -11 -17 -17 -22 -12 -5 4
-5 1 -1 -6 5 -8 -2 -16 -20 -22 -26 -10 -64 -5 -64 8 0 8 146 132 155 132 17
0 73 53 115 108 52 67 86 98 110 100 8 1 31 5 50 10 52 15 97 14 135 -2z
m2355 0 c0 -3 -8 -12 -17 -22 -11 -10 -16 -29 -14 -46 1 -16 -5 -45 -14 -65
-11 -23 -15 -46 -11 -67 10 -48 8 -65 -8 -81 -31 -32 -52 -11 -62 62 -6 47 -4
54 19 75 18 17 24 30 20 49 -4 21 3 34 33 63 33 32 54 44 54 32z m4800 -51 c0
-21 44 -53 105 -76 63 -23 85 -36 85 -50 0 -15 -47 -10 -100 11 -97 38 -160
17 -103 -36 14 -13 32 -24 39 -24 8 0 14 -4 14 -8 0 -4 14 -16 31 -26 22 -13
28 -21 20 -29 -8 -8 -25 -6 -62 7 -30 11 -63 16 -83 13 -25 -4 -43 1 -69 19
-20 13 -42 24 -50 24 -30 0 -49 25 -41 54 7 28 8 28 60 23 47 -5 54 -3 54 12
0 10 -12 20 -32 26 -68 20 -33 91 42 87 21 -2 41 2 45 8 8 13 45 -16 45 -35z
m1450 0 c18 -9 38 -33 50 -59 24 -53 18 -80 -16 -72 -13 4 -45 9 -71 13 l-46
6 6 -32 c8 -40 -6 -69 -35 -73 -19 -2 -23 -9 -21 -35 3 -38 -9 -49 -31 -27
-23 23 -19 62 14 124 15 30 40 78 54 107 14 28 33 53 43 56 10 3 19 5 21 6 2
0 16 -6 32 -14z m-6894 -10 c4 -8 -1 -26 -10 -40 -20 -30 -21 -65 -2 -65 14 0
46 -36 46 -52 0 -12 -58 -10 -99 3 -87 28 -90 30 -97 65 -10 57 4 72 91 94 47
12 65 11 71 -5z m-706 -93 c0 -15 -9 -35 -20 -45 -16 -14 -19 -24 -14 -56 5
-34 4 -39 -17 -44 -13 -4 -34 -7 -46 -7 -32 0 -38 -19 -9 -30 15 -5 28 -20 32
-35 8 -33 42 -41 109 -25 31 7 73 10 100 7 43 -6 74 -2 187 28 43 11 49 11 69
-8 12 -11 29 -21 38 -22 9 -1 25 -6 35 -10 10 -5 45 -4 78 1 38 7 58 7 58 0 0
-5 6 -3 13 6 6 8 28 25 47 38 19 13 51 41 71 62 27 30 46 41 77 45 37 5 46 1
92 -35 48 -38 55 -41 98 -35 36 4 51 1 61 -10 16 -20 6 -37 -20 -37 -11 0 -30
-11 -43 -25 -44 -47 -105 -20 -77 34 14 26 14 42 0 18 -8 -13 -18 -17 -37 -12
-40 8 -128 -25 -124 -48 2 -9 8 -17 13 -17 5 0 9 -6 9 -14 0 -17 -19 -18 -108
-4 -59 10 -65 9 -86 -11 -18 -17 -43 -24 -102 -30 -44 -5 -92 -14 -107 -22
-23 -10 -47 -10 -131 0 -92 11 -107 11 -135 -3 -27 -14 -35 -15 -65 -2 -25 10
-75 13 -192 12 -88 -1 -170 2 -184 7 -14 5 -42 9 -62 8 -54 -3 -116 16 -128
39 -15 29 -12 40 15 50 31 12 33 42 5 72 -21 23 -26 48 -10 48 6 0 28 12 50
26 35 23 43 25 71 15 51 -18 75 -13 123 24 51 39 66 43 66 19 0 -14 10 -16 59
-12 50 4 65 9 92 36 40 39 49 40 49 4z m2517 -124 c17 -27 47 -36 70 -21 12 8
35 16 53 18 25 3 33 0 42 -21 10 -22 8 -28 -21 -56 -32 -32 -33 -32 -49 -12
-16 19 -45 35 -84 47 -17 6 -40 -15 -51 -46 -9 -26 -41 -17 -45 12 -6 37 6 67
30 79 31 14 45 14 55 0z m-6149 -31 c6 0 12 -5 12 -10 0 -5 11 -6 25 -3 19 5
25 2 25 -9 0 -9 4 -14 8 -11 4 2 5 -22 2 -55 -5 -51 -10 -63 -35 -83 -39 -31
-110 -41 -141 -21 -26 17 -69 20 -59 5 8 -12 -15 -13 -34 -1 -15 10 -6 32 12
30 39 -5 59 2 53 17 -4 9 -2 22 3 28 5 6 10 14 10 19 1 13 31 67 49 87 11 14
23 18 37 13 11 -3 26 -6 33 -6z m7559 1 c-2 -7 6 -27 19 -45 30 -40 23 -60
-27 -68 -22 -4 -53 -18 -68 -31 -28 -23 -81 -33 -81 -15 0 5 -19 11 -41 15
-27 4 -49 15 -61 31 -16 21 -28 25 -69 25 -88 0 -169 -58 -169 -120 0 -28 -43
-36 -88 -17 -20 9 -46 18 -58 19 -23 3 -54 -18 -54 -37 0 -18 -39 -25 -83 -15
-48 10 -81 1 -143 -41 -85 -58 -90 -60 -91 -35 -1 15 15 34 59 66 33 25 64 53
69 63 5 9 16 17 24 17 25 0 195 98 195 112 0 6 6 8 14 5 7 -3 26 3 42 13 22
15 47 19 123 19 53 0 111 4 128 10 22 6 56 6 100 0 91 -13 181 -5 213 20 29
23 54 27 47 9z m-7960 -73 c26 -29 39 -35 72 -35 35 0 43 -4 56 -30 8 -16 19
-29 23 -29 32 5 17 -5 -33 -22 -49 -17 -61 -18 -70 -7 -5 8 -27 27 -48 42 -26
20 -37 36 -35 49 3 18 -3 21 -36 23 -49 4 -52 7 -29 37 15 21 22 23 43 15 14
-5 39 -25 57 -43z m851 -69 c2 -26 13 -46 34 -67 44 -41 28 -53 -56 -44 -71 8
-96 23 -96 57 0 20 42 68 59 68 5 0 14 7 21 15 20 24 35 12 38 -29z m7459 4
c3 -12 14 -20 27 -20 35 0 67 -12 63 -23 -4 -12 -148 -14 -209 -2 -32 6 -39 3
-65 -25 -32 -36 -83 -61 -119 -58 -29 3 -29 3 -1 51 18 31 33 43 77 58 30 10
63 16 73 13 10 -3 23 -1 30 4 15 13 43 19 85 21 26 1 35 -4 39 -19z m78 -100
c18 -11 56 -22 85 -25 29 -3 59 -10 66 -16 8 -7 44 -10 92 -8 70 4 81 2 103
-18 13 -13 33 -23 44 -24 63 -3 70 -5 67 -18 -1 -7 2 -18 7 -25 15 -18 -4 -43
-21 -28 -15 12 -61 8 -66 -6 -12 -37 -30 -44 -111 -46 -45 -1 -85 2 -88 7 -3
5 -9 3 -14 -4 -7 -11 -9 -11 -9 2 0 9 -17 29 -37 46 -61 48 -77 54 -113 42
-40 -14 -51 -4 -60 54 -6 42 2 87 16 87 4 0 21 -9 39 -20z m758 -53 c41 -18
37 -52 -8 -67 -43 -14 -94 -6 -155 23 -62 30 -65 54 -8 60 58 6 137 -1 171
-16z m-6080 -44 c39 13 60 -6 51 -47 -8 -40 -32 -66 -60 -66 -31 0 -54 26 -54
61 0 34 -4 35 -37 9 -39 -31 -93 -24 -93 11 0 32 54 47 115 34 33 -8 59 -9 78
-2z m7411 -53 c-2 -28 -8 -59 -14 -70 -6 -12 -8 -29 -5 -40 7 -21 -14 -36 -64
-45 -23 -4 -31 -2 -31 10 0 25 -17 17 -24 -11 -6 -20 -11 -24 -29 -18 -31 10
-117 84 -117 101 0 24 30 73 44 73 8 0 33 9 57 20 25 11 66 20 94 20 28 0 57
4 65 9 23 15 28 5 24 -49z m-413 -70 c9 -19 22 -59 28 -87 12 -60 -3 -123 -44
-178 -12 -16 -26 -41 -30 -55 -4 -14 -15 -43 -25 -65 -40 -94 -110 -324 -110
-361 0 -26 35 -72 64 -85 19 -8 18 -9 -4 -3 -14 3 -35 8 -48 11 -14 3 -30 -1
-42 -12 -10 -9 -29 -15 -42 -13 -19 2 -23 10 -26 46 -2 24 1 49 7 56 5 6 13
42 17 78 l7 66 -36 11 c-42 14 -85 52 -112 99 -23 38 -29 39 -58 12 -27 -26
-69 -38 -75 -22 -2 7 -21 12 -42 12 -30 0 -44 6 -63 30 -27 32 -50 32 -67 0
-8 -15 -16 -17 -46 -10 -25 6 -51 4 -78 -4 -47 -15 -171 -13 -190 4 -21 16
-41 -13 -26 -39 14 -27 -7 -61 -37 -61 -17 0 -23 6 -23 24 0 12 -5 38 -11 55
-9 24 -9 35 0 44 6 6 11 18 11 27 0 8 14 27 30 42 18 16 30 36 30 50 0 21 -5
25 -36 26 -20 1 -41 8 -48 17 -15 21 -64 32 -106 25 -21 -4 -46 -1 -62 7 -33
16 -36 5 -8 -27 11 -13 20 -27 20 -32 0 -10 -1 -10 -110 -13 -207 -8 -260 -7
-260 4 0 15 -30 21 -51 11 -10 -6 -19 -17 -19 -24 0 -30 -34 -45 -100 -43
l-65 2 3 33 c4 36 -5 39 -49 16 -23 -11 -45 -14 -87 -9 -93 11 -118 23 -171
83 l-51 57 -31 -17 c-17 -10 -37 -18 -45 -18 -7 0 -23 -13 -36 -30 -19 -26
-28 -30 -69 -30 -45 0 -47 1 -44 27 2 23 38 62 57 63 3 0 4 9 1 20 -5 20 -11
22 -118 35 -59 8 -51 8 -144 -1 -53 -5 -78 -12 -90 -26 -19 -22 -56 -23 -96
-2 -16 9 -43 20 -60 23 -24 5 -31 13 -33 35 -5 40 15 73 47 79 15 3 60 1 101
-4 69 -9 140 -13 407 -24 51 -3 117 -11 145 -19 29 -8 76 -18 103 -22 28 -4
59 -13 70 -19 11 -7 45 -13 75 -13 97 -1 293 -47 362 -86 64 -35 154 -54 202
-42 13 3 42 31 66 62 36 48 46 55 73 54 56 -3 66 -1 99 29 19 16 50 32 71 36
20 4 37 11 37 16 0 14 27 11 33 -4 4 -12 32 -23 105 -42 15 -5 25 -17 29 -36
5 -29 6 -29 73 -29 73 0 95 13 102 60 3 22 8 25 43 24 75 -1 125 -42 93 -75
-21 -21 -20 -56 2 -62 11 -3 22 -18 26 -33 11 -47 22 -54 83 -54 31 0 72 -4
90 -10 19 -5 81 -13 138 -16 99 -7 105 -6 128 16 33 31 43 72 50 204 5 89 10
114 28 138 27 36 47 32 68 -12z m-5289 -47 c2 -16 8 -28 13 -29 6 0 17 -3 25
-7 8 -3 24 -7 35 -9 23 -4 36 -45 22 -73 -8 -15 -6 -21 8 -30 31 -17 56 -45
50 -55 -7 -11 18 -17 107 -24 38 -3 77 -10 89 -16 15 -8 24 -8 34 0 11 9 22 8
47 -4 36 -16 208 -56 244 -56 13 0 31 11 42 25 15 18 29 25 55 25 38 0 53 -14
49 -42 -3 -15 4 -18 36 -18 21 0 54 7 72 16 28 14 38 15 67 4 50 -17 62 0 26
36 -24 25 -36 29 -83 29 -51 0 -55 2 -58 25 -4 40 55 72 146 78 l73 5 -7 -41
c-7 -44 -6 -44 69 -58 21 -3 43 -14 50 -24 11 -16 19 -17 64 -8 35 7 57 18 67
33 13 20 12 24 -14 52 -26 28 -27 31 -11 45 9 8 25 17 35 21 13 5 15 11 8 20
-19 23 9 62 47 65 37 4 87 -13 94 -32 6 -15 -26 -90 -47 -111 -8 -8 -22 -15
-30 -15 -23 0 -19 -24 10 -59 20 -25 23 -34 14 -50 -17 -32 20 -44 147 -47 77
-3 123 -8 143 -19 26 -14 34 -13 76 1 38 13 54 14 98 4 44 -11 85 -40 86 -61
0 -4 -21 -9 -46 -13 -36 -4 -57 -1 -93 15 -58 27 -78 29 -119 13 -33 -13 -88
-9 -98 7 -7 11 -154 11 -214 -1 -25 -4 -69 -15 -99 -23 -58 -16 -97 -10 -107
18 -4 10 -20 14 -57 13 -29 -1 -77 1 -107 4 -62 6 -125 -5 -186 -33 -24 -11
-64 -19 -96 -19 -32 0 -62 -6 -74 -15 -10 -8 -28 -15 -38 -15 -11 0 -17 -3
-13 -6 3 -3 -7 -19 -23 -35 l-28 -30 -99 5 c-54 3 -109 6 -123 7 -14 1 -43 -5
-66 -11 -51 -16 -94 -7 -94 20 0 25 58 51 120 54 49 2 155 54 155 75 0 26 -77
44 -195 47 -113 2 -116 1 -175 -31 -33 -18 -78 -38 -100 -45 -60 -19 -68 -28
-62 -77 5 -51 -8 -63 -72 -63 -40 0 -61 14 -81 51 -11 20 -45 26 -55 9 -9 -15
-61 -12 -75 5 -19 23 -56 18 -79 -10 -26 -34 -78 -42 -205 -33 -55 4 -113 5
-128 2 -34 -7 -66 10 -78 41 -6 17 -18 25 -42 27 -25 2 -34 9 -38 28 -6 24 -8
25 -86 22 -68 -3 -85 -7 -126 -34 -53 -33 -52 -32 -37 -59 18 -35 2 -57 -48
-65 -29 -4 -53 -3 -65 5 -10 6 -37 11 -60 11 -24 0 -65 7 -91 15 -43 13 -51
13 -72 -1 -37 -24 -78 -20 -127 14 -38 26 -45 35 -41 57 7 32 -9 32 -73 0 -62
-31 -84 -32 -84 -2 0 12 -4 28 -9 36 -7 10 -12 8 -25 -10 -9 -13 -16 -30 -16
-39 0 -24 -38 -80 -55 -80 -8 0 -24 -6 -35 -12 -15 -10 -22 -10 -31 -1 -10 10
-9 28 0 83 16 86 33 101 113 99 38 -1 63 3 82 16 15 10 64 24 109 31 45 7 111
21 147 30 36 9 83 16 105 15 22 0 117 -2 210 -3 l170 -2 70 39 c65 37 74 39
155 39 47 0 115 -3 153 -8 54 -7 67 -6 67 5 0 10 3 10 12 1 8 -8 51 -12 128
-12 104 0 116 2 128 20 9 15 9 24 1 38 -7 11 -9 31 -5 45 6 24 11 27 47 27 32
0 42 4 46 20 5 18 6 19 29 2 13 -9 24 -27 24 -39 0 -28 7 -28 45 -3 36 24 49
25 70 4 11 -11 14 -25 10 -44 -6 -26 -4 -28 35 -32 44 -4 63 5 73 35 5 13 -1
23 -23 35 -20 12 -30 25 -30 41 0 14 -7 32 -16 42 -11 12 -14 27 -10 44 8 33
24 32 28 -2z m-6107 -633 c43 6 114 -15 128 -37 6 -11 29 -12 95 -7 69 5 91 3
107 -9 17 -13 18 -18 7 -41 -6 -14 -20 -26 -29 -26 -10 0 -32 -8 -48 -19 -17
-10 -46 -20 -64 -23 -41 -6 -159 35 -178 62 -7 10 -25 20 -40 22 -16 2 -32 12
-38 24 -6 12 -16 29 -23 37 -10 12 -10 16 0 20 7 2 20 1 28 -2 8 -4 33 -4 55
-1z m10445 -115 c63 -8 139 -22 168 -32 l54 -18 -34 -8 c-90 -22 -164 -25
-233 -10 -82 18 -145 47 -145 68 0 19 40 19 190 0z m276 -75 c11 -11 52 -17
122 -19 39 -1 43 -3 37 -22 -5 -15 -4 -19 5 -14 9 6 9 3 1 -14 -13 -23 -41
-41 -66 -41 -14 0 -24 15 -40 65 -4 12 -9 15 -13 8 -9 -14 -131 -55 -143 -47
-19 11 -8 34 16 34 17 0 25 5 25 18 0 33 35 53 56 32z m669 -9 c22 -10 64 -24
93 -31 35 -9 51 -18 48 -27 -3 -7 -1 -15 5 -18 17 -11 -40 -46 -123 -76 -83
-29 -97 -28 -102 7 -4 23 -28 23 -111 0 -57 -16 -61 -16 -75 1 -8 10 -30 18
-48 19 -18 1 -59 9 -91 19 -46 14 -58 21 -54 35 3 10 -2 20 -11 23 -25 10 -19
25 12 26 15 0 93 1 174 2 123 1 152 5 175 20 36 23 59 23 108 0z m603 -47 c24
-7 13 -34 -15 -34 -16 -1 -46 -8 -68 -16 -46 -18 -182 -19 -224 -2 -14 6 -35
12 -46 13 -33 4 -65 17 -65 26 0 5 26 10 58 10 31 1 103 2 159 4 57 1 106 4
109 7 5 6 64 1 92 -8z m2079 -186 c70 -33 80 -45 43 -53 -17 -4 -37 -17 -46
-30 -20 -31 -74 -39 -94 -14 -8 10 -30 22 -47 25 -27 5 -33 3 -33 -10 0 -10
-4 -14 -10 -11 -5 3 -10 1 -10 -4 0 -17 -70 -13 -112 7 -38 17 -53 43 -46 78
5 26 37 32 180 33 113 1 133 -2 175 -21z m-1135 -79 c3 -24 11 -57 17 -72 25
-65 2 -125 -43 -111 -11 4 -39 10 -61 13 -50 7 -54 26 -16 69 17 18 28 39 25
47 -4 8 -2 15 4 15 6 0 18 20 28 45 21 55 37 53 46 -6z m-10433 -591 c22 -13
48 -18 75 -16 36 3 41 0 44 -19 3 -23 -4 -26 -70 -38 -21 -3 -38 -9 -38 -13 0
-12 -58 -13 -65 -2 -3 5 -27 10 -53 10 -65 0 -80 12 -53 39 11 11 30 21 41 21
15 0 20 7 20 29 0 29 1 30 33 19 17 -6 47 -20 66 -30z m6086 -199 c61 -54 51
-65 -66 -74 -86 -6 -104 -4 -118 9 -20 20 -8 41 39 74 49 33 101 30 145 -9z
m3611 -938 c-3 -5 -26 -14 -51 -20 -53 -13 -52 -26 2 -36 21 -3 49 -14 63 -23
14 -9 33 -15 43 -14 9 2 20 -4 23 -12 7 -19 25 -22 22 -3 -2 7 10 13 30 15 24
3 32 -1 32 -13 0 -9 5 -13 11 -10 6 4 8 13 5 21 -3 9 2 15 14 16 11 0 25 1 31
2 6 1 18 -9 27 -21 10 -17 11 -23 2 -23 -6 0 -14 9 -17 21 -8 28 -22 5 -24
-36 -1 -16 -3 -23 -6 -13 -4 14 -7 15 -30 3 -16 -8 -33 -11 -42 -6 -26 13 -90
23 -111 16 -10 -3 -28 -26 -40 -50 -22 -45 -46 -59 -52 -30 -5 24 -30 0 -30
-29 0 -15 -3 -28 -7 -30 -11 -7 -113 31 -122 45 -5 8 -9 12 -10 9 -6 -34 -8
-43 -13 -48 -28 -28 3 92 35 131 11 15 38 32 61 39 44 13 57 30 39 52 -10 12
-2 18 41 35 58 22 82 26 74 12z m-12360 -233 c26 7 47 11 48 10 0 -2 7 -13 14
-25 6 -13 12 -33 13 -45 1 -20 3 -18 15 10 15 34 41 52 53 36 7 -11 18 -11 45
1 18 8 40 -11 30 -26 -2 -4 0 -10 6 -14 5 -3 10 1 10 9 0 9 5 16 10 16 6 0 10
7 10 15 0 24 13 18 55 -25 43 -44 57 -98 30 -120 -8 -7 -15 -23 -15 -36 0 -20
5 -24 30 -24 26 0 31 5 37 30 7 38 17 37 77 0 l48 -31 -49 -49 c-35 -36 -56
-50 -77 -50 -36 0 -106 20 -106 32 0 4 -6 8 -14 8 -8 0 -18 10 -22 23 -10 29
-6 91 6 95 6 2 10 8 10 13 0 6 -4 7 -10 4 -5 -3 -19 -1 -30 5 -15 8 -20 8 -20
-2 0 -8 -9 -21 -20 -31 -11 -9 -20 -28 -20 -41 0 -25 -26 -54 -37 -42 -4 4 -3
10 3 14 15 9 29 86 15 77 -6 -3 -11 0 -11 9 0 8 -8 13 -17 12 -10 -2 -24 3
-32 11 -12 12 -17 11 -37 -8 l-24 -22 0 26 c0 29 -26 38 -36 12 -5 -12 -10
-10 -25 8 -15 18 -20 19 -28 8 -5 -7 -13 -11 -19 -7 -6 3 -16 -2 -22 -11 -9
-16 -10 -15 -9 7 3 51 -1 56 -20 33 -11 -13 -23 -18 -30 -13 -20 12 6 59 47
87 28 18 37 20 52 10 15 -9 30 -8 66 1z m12164 -128 c5 0 16 7 25 16 12 12 28
15 66 12 27 -3 49 -1 49 4 0 5 5 6 10 3 14 -9 12 -25 -3 -25 -7 0 -25 -15 -41
-32 -26 -30 -34 -33 -87 -33 -55 0 -59 2 -68 28 -12 33 -32 36 -28 5 2 -19 -3
-23 -28 -26 -61 -5 -63 12 -5 72 l54 55 24 -40 c13 -21 27 -39 32 -39z m-8667
-89 c13 -16 46 -62 73 -101 27 -40 53 -77 57 -83 5 -7 -2 -31 -17 -58 -25 -44
-27 -46 -76 -47 l-50 -1 0 34 c0 18 5 46 10 60 8 22 13 25 24 16 11 -9 15 -9
18 1 7 21 -15 69 -29 63 -7 -3 -20 -8 -28 -11 -17 -7 -22 31 -5 41 6 3 10 1
10 -6 0 -7 3 -10 6 -7 3 4 -6 31 -20 61 -14 29 -26 57 -26 60 0 17 31 4 53
-22z m-2701 -204 c2 -13 0 -28 -6 -35 -30 -31 -33 -38 -22 -47 6 -6 18 -10 26
-10 10 0 14 -8 12 -25 -1 -17 1 -21 7 -11 11 17 51 -2 51 -24 0 -8 5 -15 10
-15 7 0 7 -7 0 -21 -7 -11 -9 -27 -6 -35 4 -11 2 -12 -17 -1 -12 6 -25 16 -28
21 -4 5 -15 5 -25 1 -11 -5 -23 -7 -27 -6 -5 1 -11 -8 -14 -19 -6 -22 -23 -28
-23 -7 0 6 -12 0 -25 -16 -21 -24 -27 -26 -45 -15 -11 7 -19 17 -19 23 3 24
-2 35 -16 35 -18 0 -18 -1 -4 40 l12 33 16 -22 c11 -14 23 -20 34 -15 21 8 23
44 2 44 -8 0 -15 9 -15 20 0 24 4 25 24 4 15 -14 16 -13 16 6 0 31 24 19 28
-14 2 -18 0 -26 -7 -21 -6 3 -11 1 -11 -4 0 -6 7 -11 16 -11 12 0 15 9 13 38
-3 44 8 82 24 82 8 0 8 3 0 11 -12 12 -7 39 7 39 4 0 10 -10 12 -23z m12088
-31 c0 -18 3 -48 6 -65 6 -30 5 -31 -27 -31 -19 0 -40 -4 -48 -9 -9 -6 -24 -5
-39 0 -14 5 -55 10 -91 11 -107 1 -125 14 -78 59 43 42 119 64 235 68 41 1 42
1 42 -33z m-6583 -138 c0 -7 1 -24 2 -38 1 -23 3 -24 15 -7 18 23 29 22 21 -3
-5 -15 -2 -20 12 -20 11 0 14 -3 7 -8 -6 -4 -16 -18 -23 -32 l-12 -25 20 25
c19 23 21 24 21 5 1 -17 3 -17 12 5 6 14 10 31 9 39 -1 7 2 10 9 6 6 -4 17 -2
24 4 11 9 12 6 8 -16 -2 -16 -8 -32 -12 -38 -4 -5 -7 -48 -8 -95 l0 -85 -39
-5 c-57 -8 -68 -18 -47 -41 12 -13 17 -35 16 -69 0 -28 3 -50 9 -50 17 0 9
-39 -10 -50 -11 -5 -41 -10 -66 -10 l-46 0 5 -32 c3 -18 14 -40 26 -50 31 -25
25 -30 -29 -26 -39 2 -52 -1 -60 -14 -17 -28 -13 -38 17 -38 19 0 32 -8 43
-29 15 -26 23 -29 80 -33 35 -3 75 -1 89 5 14 6 29 9 33 8 4 -1 13 12 18 29
11 29 23 38 32 23 6 -10 -39 -99 -47 -95 -3 1 -7 -1 -7 -5 -4 -17 -65 -33
-129 -33 -79 0 -77 -1 -137 108 l-23 40 35 58 c19 32 35 61 35 66 0 13 -18 9
-23 -4 -2 -8 -24 -13 -58 -13 -78 -1 -95 21 -83 107 l6 37 46 -15 c83 -25 144
-15 171 29 22 34 30 74 18 86 -28 28 -182 -3 -225 -46 -28 -28 -29 -27 -33 8
-4 29 26 68 34 46 3 -6 6 -3 6 8 2 25 69 118 80 110 5 -2 14 2 21 10 17 21 30
19 30 -4 0 -24 16 -36 26 -20 5 8 3 9 -6 4 -10 -6 -12 -2 -7 16 4 13 7 32 7
42 0 9 8 17 18 17 13 0 14 2 3 9 -11 7 -10 11 7 20 11 6 28 11 36 11 9 0 16 5
16 11 0 6 -9 8 -22 3 l-23 -6 23 20 c16 14 19 22 11 28 -7 4 -19 -3 -30 -17
-10 -13 -21 -20 -25 -16 -4 4 -1 7 7 7 12 0 12 2 0 9 -8 5 -11 16 -8 25 8 20
75 23 74 4z m-2633 -252 c16 -46 18 -70 11 -153 -4 -54 -9 -115 -10 -135 -2
-20 -6 -41 -9 -47 -4 -5 -2 -12 3 -15 5 -3 7 -14 4 -25 -3 -11 4 -27 19 -41
l23 -22 -22 11 c-20 10 -23 9 -23 -5 0 -10 -3 -15 -6 -11 -6 6 -84 -31 -84
-40 0 -17 24 -43 40 -43 10 0 22 -5 26 -11 3 -6 15 -9 25 -6 10 3 22 1 25 -4
3 -5 -11 -9 -31 -9 -42 0 -110 -32 -125 -59 -14 -27 -13 -33 8 -30 9 1 55 1
102 0 61 -1 81 -4 70 -11 -8 -6 -44 -9 -80 -8 -62 2 -65 2 -63 -20 3 -23 -20
-31 -32 -12 -3 6 -1 10 5 10 7 0 5 6 -4 15 -8 8 -22 15 -30 15 -9 0 -16 5 -16
10 0 6 5 10 10 10 7 0 7 6 1 19 -6 10 -8 21 -5 23 14 14 -44 87 -80 101 -15 6
-17 14 -12 45 14 74 11 72 86 72 38 0 75 3 84 6 10 4 16 1 16 -9 0 -8 7 -18
16 -21 8 -3 13 -10 9 -15 -3 -5 -1 -13 5 -16 6 -4 9 -1 8 7 -2 8 5 12 17 10
17 -2 15 2 -11 25 -30 27 -54 71 -54 96 1 7 6 2 13 -10 l12 -22 24 25 c13 13
18 24 11 24 -6 0 -9 3 -6 8 2 4 -2 18 -10 32 -13 21 -14 22 -9 4 6 -24 -19
-41 -31 -22 -26 42 -19 208 10 250 l16 22 0 -24 0 -24 17 23 c15 22 15 25 -1
36 -16 12 -11 21 14 24 3 1 14 -23 24 -53z m10003 23 c88 -13 150 -47 218
-119 36 -38 37 -41 15 -35 -14 4 -37 14 -52 21 -15 8 -34 14 -42 14 -8 0 -19
6 -23 14 -20 35 -77 56 -150 56 -39 0 -75 5 -78 10 -3 6 -27 16 -53 23 l-47
12 50 6 c28 3 58 7 67 7 9 1 52 -3 95 -9z m-10108 -49 c0 -19 -4 -62 -8 -95
-5 -33 -5 -67 -1 -75 4 -8 10 -26 13 -40 6 -25 6 -25 -63 -26 -70 -1 -76 1
-62 22 8 13 82 39 97 35 6 -1 5 3 -2 10 -8 8 -16 9 -25 2 -7 -6 -24 -13 -36
-16 -22 -5 -23 -3 -17 21 9 39 21 48 41 31 16 -13 16 -12 4 8 -11 18 -17 20
-29 10 -12 -10 -13 -8 -7 13 4 14 10 34 13 45 l6 20 8 -20 c6 -15 8 -11 9 20
1 22 2 47 1 56 -1 12 6 16 29 15 28 -1 30 -4 29 -36z m2811 -130 c0 -15 62
-28 84 -17 10 5 42 12 71 16 48 7 52 6 47 -12 -3 -10 -10 -21 -17 -23 -7 -3
-10 -15 -8 -28 4 -18 -3 -26 -35 -40 -22 -10 -49 -15 -60 -12 -18 6 -20 3 -18
-29 2 -25 -1 -35 -11 -35 -8 0 -11 -4 -8 -10 3 -5 -1 -10 -10 -10 -12 0 -15 5
-10 18 8 19 9 26 7 65 -2 20 -7 27 -22 27 -14 0 -20 6 -19 23 0 12 3 16 6 10
2 -7 9 -13 14 -13 14 0 4 43 -11 48 -7 3 -10 0 -6 -7 4 -6 3 -11 -2 -11 -5 0
-9 11 -9 25 0 14 3 25 8 25 5 0 9 -4 9 -10z m-3221 -94 c7 -8 8 -17 3 -20 -11
-7 -37 -84 -47 -137 l-7 -36 49 4 c58 6 191 -21 213 -42 13 -14 13 -17 0 -26
-14 -9 -31 -8 -122 7 -52 9 -47 -6 12 -39 28 -16 50 -30 50 -32 0 -10 -48 1
-72 17 -20 14 -32 16 -52 8 -14 -5 -26 -14 -26 -19 0 -5 28 -28 62 -50 62 -41
66 -56 6 -25 -26 13 -35 14 -54 3 -13 -7 -24 -17 -24 -22 0 -18 32 -47 52 -47
10 0 32 -7 48 -15 35 -18 41 -39 8 -26 -59 22 -95 29 -120 24 -16 -3 -28 -9
-28 -13 0 -10 -106 -31 -124 -24 -7 3 -16 -3 -20 -12 -6 -16 -7 -16 -20 1 -10
14 -20 16 -42 11 l-29 -8 28 -16 c35 -22 34 -34 -5 -69 -52 -45 -90 -95 -84
-109 3 -9 -2 -14 -13 -14 -20 0 -35 -25 -25 -41 3 -5 13 -9 22 -9 12 0 13 -3
4 -12 -10 -10 -41 -11 -141 -3 -14 1 -27 7 -29 14 -2 7 3 11 13 9 17 -3 53 50
59 84 1 7 24 58 51 112 38 76 64 113 108 155 83 79 123 143 249 394 20 40 29
45 47 23z m705 -141 c22 -29 19 -42 -11 -53 l-28 -10 28 -1 c15 -1 27 -3 27
-6 0 -9 -40 -45 -50 -45 -5 0 -10 -7 -10 -15 0 -8 -4 -15 -10 -15 -5 0 -10 -9
-10 -20 0 -14 -7 -20 -24 -20 -26 0 -36 16 -36 57 0 19 4 24 16 19 14 -5 15
-4 5 8 -6 8 -14 24 -16 36 -2 12 -10 29 -17 37 -6 8 -13 24 -15 35 -3 19 1 20
67 16 55 -3 73 -8 84 -23z m3020 -14 c3 -21 13 -44 21 -51 8 -7 12 -17 9 -22
-3 -5 1 -17 9 -26 8 -9 27 -48 42 -86 28 -72 25 -85 -18 -86 -14 0 -16 -4 -7
-19 8 -16 6 -21 -11 -26 -12 -4 -18 -12 -15 -21 3 -8 -1 -14 -9 -14 -10 0 -15
-10 -15 -28 0 -23 -8 -32 -44 -49 -39 -19 -55 -21 -135 -16 -92 6 -108 0 -76
-27 32 -26 12 -31 -124 -29 -77 0 -144 -2 -150 -6 -6 -3 -11 -1 -11 4 0 6 -10
11 -22 11 -19 0 -20 -2 -8 -10 11 -7 -8 -11 -65 -12 -257 -4 -295 -1 -278 24
12 20 10 58 -3 58 -18 0 -25 28 -11 42 7 7 16 21 20 30 3 10 16 16 29 16 25
-2 50 -17 44 -27 -2 -3 7 -6 20 -6 13 0 24 4 24 8 0 5 4 6 10 2 14 -9 -1 -37
-17 -31 -8 4 -11 1 -7 -5 3 -6 17 -8 31 -4 16 4 34 -1 53 -15 15 -11 42 -20
59 -20 17 0 31 -4 31 -10 0 -5 5 -10 10 -10 6 0 10 7 10 15 0 8 5 15 10 15 6
0 10 -6 10 -12 0 -8 3 -9 8 -3 12 17 48 17 62 0 7 -8 19 -15 26 -15 8 0 11 -6
8 -15 -12 -30 24 -14 106 47 46 35 85 58 87 53 10 -30 22 -40 35 -27 6 6 36
12 67 12 30 0 68 4 85 10 17 5 44 12 60 15 21 5 26 9 18 17 -9 9 -25 8 -63 0
-28 -7 -66 -12 -84 -12 -19 0 -37 -4 -40 -10 -3 -5 -14 -10 -23 -10 -15 0 -15
2 -2 10 11 8 8 9 -12 4 -21 -4 -29 -2 -34 11 -11 27 17 45 87 56 35 6 68 14
73 19 5 5 -9 4 -30 -1 -22 -4 -54 -6 -71 -3 -26 5 -33 11 -33 29 0 27 7 30
106 48 49 9 77 10 97 3 22 -8 30 -7 37 4 5 8 7 17 4 21 -2 4 0 19 6 33 6 17 6
26 0 26 -6 0 -10 6 -10 14 0 8 -7 16 -15 20 -8 3 -15 12 -15 21 0 8 -5 15 -10
15 -7 0 -8 14 -4 38 9 47 11 52 33 52 14 0 20 -10 25 -39z m-1380 -55 c10 -21
15 -41 10 -45 -5 -3 -19 -25 -31 -49 -20 -38 -21 -48 -11 -91 11 -49 11 -49
59 -55 26 -4 72 -15 102 -25 l55 -19 49 24 c27 13 71 28 97 34 26 6 66 20 88
31 48 24 62 18 24 -12 -14 -11 -33 -36 -41 -55 -11 -27 -20 -34 -42 -34 -40 0
-175 -71 -179 -94 -1 -10 -4 -20 -6 -22 -2 -2 -40 6 -83 17 -122 30 -232 8
-134 -27 19 -7 63 -13 99 -13 95 -2 106 -17 18 -24 -40 -4 -102 -10 -137 -13
-46 -5 -62 -4 -57 4 4 7 -7 12 -31 14 -37 3 -71 -8 -84 -26 -4 -5 -12 -5 -19
-1 -9 5 -11 4 -6 -3 4 -7 2 -12 -3 -12 -6 0 -11 4 -11 9 0 5 -7 11 -14 14 -10
4 -13 1 -9 -9 4 -10 -2 -14 -21 -14 -32 0 -33 10 -3 37 34 31 51 39 45 21 -4
-8 -1 -15 7 -15 7 0 11 6 8 14 -3 7 9 27 26 45 17 17 31 36 31 41 0 5 15 23
33 40 17 17 26 27 20 23 -19 -11 -17 -2 26 88 50 104 71 163 71 202 0 57 25
57 54 0z m3096 24 c13 -8 12 -10 -2 -10 -20 0 -24 -33 -9 -90 21 -80 22 -90 9
-90 -7 -1 -26 -7 -43 -14 l-30 -14 43 1 c28 1 46 -4 52 -13 17 -26 4 -35 -48
-35 -27 0 -53 -3 -57 -7 -4 -4 -13 -4 -21 -1 -8 3 -14 1 -14 -5 0 -15 75 -23
105 -12 41 16 73 12 85 -10 8 -16 6 -21 -12 -31 -12 -7 -41 -11 -63 -11 -33 2
-47 -3 -65 -23 -26 -28 -42 -33 -34 -10 5 11 2 14 -12 9 -28 -10 -55 -36 -65
-61 -5 -13 -17 -23 -27 -23 -11 0 -31 -9 -45 -20 -14 -11 -38 -20 -54 -20 -27
0 -239 58 -217 59 5 1 19 8 30 17 10 8 13 12 5 8 -9 -4 -12 -3 -7 4 4 6 14 8
23 5 12 -5 14 -3 8 7 -8 13 17 11 60 -5 19 -7 19 -7 1 7 -14 11 -16 17 -6 23
7 4 16 2 20 -5 6 -10 9 -8 13 6 2 10 5 -1 6 -26 2 -61 11 -74 49 -65 25 5 42
21 46 45 1 3 10 15 21 27 46 50 51 57 33 50 -41 -15 -89 -19 -103 -7 -20 16
-20 44 0 37 8 -4 17 -2 20 3 4 6 -1 10 -9 10 -9 0 -16 5 -16 11 0 7 11 9 31 5
38 -7 69 8 69 35 0 39 28 85 73 119 25 19 48 45 52 58 6 24 21 29 28 10 2 -7
2 -3 1 9 -3 14 4 27 18 37 26 18 37 19 58 6z m-4190 -159 c0 -8 20 -17 45 -19
5 0 12 -9 16 -19 14 -34 9 -65 -12 -82 l-22 -18 23 -26 c13 -15 29 -27 35 -27
7 0 30 -26 51 -57 57 -84 59 -87 44 -78 -10 6 -12 4 -7 -8 5 -14 2 -16 -17
-11 -13 3 -27 1 -31 -6 -14 -23 -95 10 -95 39 0 6 -12 11 -28 11 -27 0 -62
-29 -62 -51 0 -7 -7 -8 -17 -4 -10 3 -56 6 -103 5 -145 -3 -147 -2 -137 25 4
10 19 15 46 15 40 0 93 31 78 47 -11 10 -104 7 -136 -4 -22 -9 -22 -10 -7 -26
15 -15 15 -17 -12 -31 -63 -32 -213 -54 -331 -48 -28 2 -32 4 -21 17 7 8 17
12 23 8 6 -3 7 -1 3 5 -4 6 5 19 21 29 15 10 43 35 62 56 46 51 130 91 238
113 12 2 32 8 45 13 l23 10 -22 0 c-16 1 -23 7 -23 20 0 26 16 36 78 51 50 11
84 10 183 -6 34 -5 37 -4 47 24 6 17 8 33 5 36 -4 3 -1 6 5 6 7 0 12 -4 12 -9z
m5132 -9 c61 -13 92 -24 102 -38 13 -16 18 -17 35 -7 37 23 71 -9 51 -48 -17
-31 -66 -25 -85 11 -9 17 -23 30 -32 30 -9 0 -13 -3 -10 -7 4 -3 1 -13 -5 -21
-10 -11 -9 -16 5 -23 37 -21 18 -37 -50 -43 -56 -6 -81 -3 -138 16 -61 20 -70
26 -73 49 -4 35 52 99 87 99 14 0 65 -8 113 -18z m-207 -146 c8 3 37 -2 65
-11 28 -9 56 -15 63 -12 20 7 79 -21 75 -35 -16 -46 -108 -40 -211 14 -26 13
-32 3 -14 -25 18 -28 87 -51 128 -42 28 6 35 0 30 -28 -1 -4 7 -11 16 -15 12
-4 -1 -9 -37 -12 -32 -3 -63 0 -75 6 -37 21 -73 25 -71 8 0 -9 -18 -23 -49
-35 -27 -12 -65 -27 -82 -35 -33 -14 -33 -13 -33 14 0 15 7 37 15 49 29 42
160 173 163 164 2 -6 10 -7 17 -5z m-2193 -10 c53 -17 100 -45 93 -56 -3 -4 3
-11 12 -14 28 -11 1 -25 -64 -34 -54 -7 -64 -6 -78 10 -8 10 -21 16 -27 12 -7
-4 -8 -3 -4 5 4 6 -2 26 -13 45 -12 18 -21 36 -21 40 0 11 53 6 102 -8z m1586
-63 c20 -21 39 -37 43 -36 3 1 6 -4 5 -12 0 -8 2 -13 5 -12 13 4 47 -34 51
-57 7 -33 -10 -41 -84 -42 l-67 0 25 23 c22 20 32 43 18 43 -3 0 -25 -9 -50
-20 -84 -39 -97 -42 -90 -24 3 8 6 20 6 25 0 5 6 9 14 9 19 0 87 40 103 60 39
49 -3 43 -121 -18 -18 -9 -31 -11 -35 -4 -3 5 -15 11 -25 13 -36 7 -28 28 16
40 24 6 63 20 88 30 25 10 49 18 54 19 5 0 25 -17 44 -37z m1185 -14 c36 -10
37 -11 35 -55 -3 -37 -6 -44 -20 -40 -10 2 -18 0 -18 -4 0 -5 -8 -7 -17 -5
-10 2 -28 4 -39 4 -25 1 -52 37 -61 81 -5 30 -5 30 38 30 24 0 61 -5 82 -11z"/>
<path d="M2864 8838 c-3 -5 -3 -19 0 -31 5 -22 8 -22 151 -19 160 4 175 0 223
-59 35 -43 55 -38 74 21 20 60 17 63 -82 80 -88 16 -358 21 -366 8z"/>
</g>
</svg>
